{"title":"Horrid Henry The Movie 2011 READNFO WEBRip XViD DTRG","uid":6843933,"size":738892130,"categoryP":"video","categoryS":"movies","magnet":"?xt=urn:btih:47fae69046c7934607036c6e9e63d84e15183573&amp;dn=Horrid+Henry+The+Movie+2011+READNFO+WEBRip+XViD+DTRG&amp;tr=udp%3A%2F%2Ftracker.openbittorrent.com%3A80&amp;tr=udp%3A%2F%2Fopen.demonii.com%3A1337&amp;tr=udp%3A%2F%2Ftracker.coppersurfer.tk%3A6969&amp;tr=udp%3A%2F%2Fexodus.desync.com%3A6969","seeders":1,"leechers":1,"uploader":".BONE.","files":2,"time":1322290807,"description":"Format : AVI\nFormat/Info : Audio Video Interleave\nFile size : 700 MiB\nDuration : 1h 28mn\nOverall bit rate : 1 102 Kbps\nWriting application : VirtualDubMod 1.5.10.2 (build 2540/release)\nWriting library : VirtualDubMod build 2540/release\n\nVideo\nID : 0\nFormat : MPEG-4 Visual\nFormat profile : Advanced Simple@L5\nFormat settings, BVOP : 3\nFormat settings, QPel : No\nFormat settings, GMC : No warppoints\nFormat settings, Matrix : Default (H.263)\nMuxing mode : Packed bitstream\nCodec ID : XVID\nCodec ID/Hint : XviD\nDuration : 1h 28mn\nBit rate : 900 Kbps\nWidth : 680 pixels\nHeight : 384 pixels\nDisplay aspect ratio : 16:9\nFrame rate : 25.000 fps\nColor space : YUV\nChroma subsampling : 4:2:0\nBit depth : 8 bits\nScan type : Progressive\nCompression mode : Lossy\nBits/(Pixel*Frame) : 0.138\nStream size : 572 MiB (82%)\nWriting library : XviD 64\n\nAudio\nID : 1\nFormat : AC-3\nFormat/Info : Audio Coding 3\nMode extension : CM (complete main)\nCodec ID : 2000\nDuration : 1h 28mn\nBit rate mode : Constant\nBit rate : 192 Kbps\nChannel(s) : 2 channels\nChannel positions : Front: L R\nSampling rate : 48.0 KHz\nBit depth : 16 bits\nCompression mode : Lossy\nStream size : 122 MiB (17%)\nAlignment : Split accross interleaves\nInterleave, duration : 40 ms (1.00 video frame)\nInterleave, preload duration : 500 ms\n &lt;a href=&quot;\nhttp://www.imdb.com/title/tt1684555/&quot; rel=&quot;nofollow&quot; target=&quot;_NEW&quot;&gt;\nhttp://www.imdb.com/title/tt1684555/&lt;/a&gt;\n &lt;a href=&quot;\nhttp://img717.imageshack.us/img717/2388/vlcsnap2011112519h06m50.png&quot; rel=&quot;nofollow&quot; target=&quot;_NEW&quot;&gt;\nhttp://img717.imageshack.us/img717/2388/vlcsnap2011112519h06m50.png&lt;/a&gt;\n &lt;a href=&quot;\nhttp://img607.imageshack.us/img607/9907/vlcsnap2011112519h07m15.png&quot; rel=&quot;nofollow&quot; target=&quot;_NEW&quot;&gt;\nhttp://img607.imageshack.us/img607/9907/vlcsnap2011112519h07m15.png&lt;/a&gt;\n &lt;a href=&quot;\nhttp://img97.imageshack.us/img97/793/vlcsnap2011112519h06m24.png&quot; rel=&quot;nofollow&quot; target=&quot;_NEW&quot;&gt;\nhttp://img97.imageshack.us/img97/793/vlcsnap2011112519h06m24.png&lt;/a&gt;\n &lt;a href=&quot;\nhttp://img64.imageshack.us/img64/847/vlcsnap2011112519h06m20.png&quot; rel=&quot;nofollow&quot; target=&quot;_NEW&quot;&gt;\nhttp://img64.imageshack.us/img64/847/vlcsnap2011112519h06m20.png&lt;/a&gt;\n\n\nSource Used\n\n\nVideo...................Russian Webrip ............Thanks\n\nAudio ....................DVDR ....NoGrp ................Thanks ( yes the one with the wonderful colouring )\n\n\nReason for READNFO .......what a nightmare this was to sync the vid has glitches time to time and kinda freezes it aint too bad but it took the sync in and out\n\nSo yes you gonna notice a few oos spots but not by barely anything but this really was a nighmare to sync so take it or leave it and if your kids notice and start moaning and going on at you send me a pm and i'll sort them out\n\n\n\nRetail anytime now as well\n\n\n\nEnjoy\n","torrent":{"xt":"urn:btih:47fae69046c7934607036c6e9e63d84e15183573","amp;dn":"Horrid+Henry+The+Movie+2011+READNFO+WEBRip+XViD+DTRG","amp;tr":["udp%3A%2F%2Ftracker.openbittorrent.com%3A80","udp%3A%2F%2Fopen.demonii.com%3A1337","udp%3A%2F%2Ftracker.coppersurfer.tk%3A6969","udp%3A%2F%2Fexodus.desync.com%3A6969"],"infoHash":"47fae69046c7934607036c6e9e63d84e15183573","infoHashBuffer":{"type":"Buffer","data":[71,250,230,144,70,199,147,70,7,3,108,110,158,99,216,78,21,24,53,115]},"announce":[],"urlList":[]}}